<svg width="290" height="353" viewBox="0 0 290 353" fill="none" xmlns="http://www.w3.org/2000/svg">
<path d="M230 75C230 86.0457 238.954 95 250 95H270C281.046 95 290 103.954 290 115V175C290 186.046 281.046 195 270 195H250C238.954 195 230 203.954 230 215V258C230 269.046 221.046 278 210 278H140C128.954 278 120 286.954 120 298V333C120 344.046 111.046 353 100 353H40C28.9543 353 20 344.046 20 333V150C20 138.954 28.9543 130 40 130H100C111.046 130 120 138.954 120 150V158C120 169.046 128.954 178 140 178H170C181.046 178 190 169.046 190 158V130C190 118.954 181.046 110 170 110H150C138.954 110 130 101.046 130 90V30C130 18.9543 138.954 10 150 10H210C221.046 10 230 18.9543 230 30V75ZM100 80C100 91.0457 91.0457 100 80 100H20C8.9543 100 0 91.0457 0 80V20C0 8.9543 8.95431 0 20 0H80C91.0457 0 100 8.95431 100 20V80Z" fill="#808080"/>
</svg>
