<?xml version="1.0" standalone="no"?>
<!DOCTYPE svg PUBLIC "-//W3C//DTD SVG 20010904//EN"
 "http://www.w3.org/TR/2001/REC-SVG-20010904/DTD/svg10.dtd">
<svg version="1.0" xmlns="http://www.w3.org/2000/svg"
 width="512.000000pt" height="512.000000pt" viewBox="0 0 512.000000 512.000000"
 preserveAspectRatio="xMidYMid meet">
<metadata>
Created by potrace 1.16, written by Peter Selinger 2001-2019
</metadata>
<g transform="translate(0.000000,512.000000) scale(0.100000,-0.100000)"
fill="#000000" stroke="none">
<path d="M1811 3742 c46 -36 139 -81 130 -63 -16 29 -57 61 -92 71 -52 15 -65
12 -38 -8z"/>
<path d="M3196 3586 c-15 -65 -37 -161 -48 -214 -10 -53 -21 -99 -24 -104 -3
-4 -16 -8 -30 -8 -18 0 -24 5 -24 23 0 33 -29 116 -56 157 -34 54 -94 107
-149 132 -47 22 -64 23 -312 26 l-263 4 0 -486 0 -486 313 0 c280 0 322 -2
391 -20 207 -53 359 -192 439 -404 30 -78 31 -86 31 -241 0 -147 -2 -167 -27
-240 -81 -244 -269 -417 -544 -502 l-88 -27 -457 -4 -457 -3 42 -41 c103 -99
207 -120 597 -118 285 0 371 7 465 37 55 17 167 64 175 73 3 3 17 11 33 17 15
7 27 17 27 23 0 5 6 10 14 10 20 0 177 159 218 222 85 128 121 244 122 398 1
108 -1 122 -37 230 -22 63 -48 142 -58 175 -30 94 -87 183 -174 271 -66 66
-97 89 -175 127 -109 54 -183 75 -290 84 l-75 6 5 281 c5 304 8 318 62 347 13
7 36 23 51 35 46 39 71 32 95 -25 12 -26 24 -68 28 -92 10 -65 18 -74 80 -94
74 -23 123 -11 146 38 37 78 46 289 16 367 -5 14 -15 52 -22 84 l-12 59 -28
-117z m-478 -157 c28 -30 32 -79 32 -422 l0 -310 -161 6 c-88 3 -164 8 -167
12 -10 10 -3 501 9 573 16 104 39 124 168 148 93 17 98 16 119 -7z"/>
<path d="M2287 1993 c-4 -153 -7 -329 -7 -392 l0 -114 218 6 c119 4 229 9 245
13 l27 6 0 240 c0 146 4 237 9 233 6 -3 13 16 17 42 3 27 14 60 22 76 19 31
69 49 113 40 42 -8 36 8 -21 51 -86 66 -139 76 -394 76 l-223 0 -6 -277z m293
-133 l0 -271 -77 3 -78 3 1 185 c1 246 21 311 100 326 19 3 37 10 40 15 3 5 7
9 10 9 2 0 4 -122 4 -270z"/>
</g>
</svg>